<?xml version="1.0" standalone="no"?>
<!DOCTYPE svg PUBLIC "-//W3C//DTD SVG 20010904//EN"
 "http://www.w3.org/TR/2001/REC-SVG-20010904/DTD/svg10.dtd">
<svg version="1.0" xmlns="http://www.w3.org/2000/svg"
 width="500.000000pt" height="500.000000pt" viewBox="0 0 500.000000 500.000000"
 preserveAspectRatio="xMidYMid meet">

<g transform="translate(0.000000,500.000000) scale(0.100000,-0.100000)"
fill="#000000" stroke="none">
<path d="M0 2485 l0 -2485 2500 0 2500 0 0 2485 0 2485 -2500 0 -2500 0 0
-2485z m3277 1081 c-16 -13 -16 -14 -1 -20 16 -6 15 -8 -2 -21 -18 -14 -18
-14 -1 -15 24 0 11 -20 -14 -20 -15 0 -19 7 -19 38 0 44 5 52 34 52 20 -1 20
-1 3 -14z m-65 -8 c-7 -7 -12 -25 -12 -42 0 -39 -12 -26 -16 19 -3 30 0 35 18
35 17 0 19 -3 10 -12z m-72 -34 c14 -36 12 -47 -6 -40 -9 4 -23 1 -31 -5 -21
-18 -23 -8 -6 34 18 43 30 47 43 11z m377 15 c601 -67 1033 -603 973 -1207
-26 -251 -127 -465 -310 -655 -155 -162 -340 -263 -570 -313 -90 -19 -315 -22
-410 -5 -173 31 -335 105 -495 226 -236 178 -432 384 -627 658 -69 95 -71 97
-103 91 -44 -8 -80 3 -66 20 6 7 14 33 17 57 5 40 1 50 -40 114 l-46 70 0 -78
c0 -115 -25 -160 -100 -182 -24 -8 -23 -7 8 29 l32 37 0 144 0 145 -51 83
c-69 110 -225 328 -286 399 -116 136 -246 198 -413 198 -231 0 -427 -151 -494
-379 -20 -68 -21 -198 -1 -270 46 -173 184 -312 364 -365 31 -9 91 -16 137
-16 74 0 84 2 98 22 9 12 16 38 17 58 1 19 5 46 9 60 8 24 8 23 9 -8 1 -38 26
-103 44 -114 25 -16 -13 -30 -109 -40 -84 -10 -110 -9 -174 6 -112 24 -187 64
-269 141 -297 281 -184 774 207 906 89 30 241 33 322 5 76 -25 149 -68 209
-122 56 -50 194 -229 296 -381 l68 -102 42 6 c45 6 67 -9 46 -30 -6 -6 -11
-29 -11 -52 0 -35 15 -64 104 -202 208 -322 329 -478 511 -658 318 -315 577
-448 896 -462 588 -26 1086 424 1116 1010 28 536 -334 1011 -852 1118 -49 10
-107 19 -127 19 l-36 0 15 -30 c41 -84 -56 -158 -131 -99 -20 16 -26 29 -26
57 1 40 11 58 50 84 30 21 36 21 157 7z m-464 -44 c-8 -25 -17 -45 -19 -45 -6
0 -34 58 -34 71 0 8 7 6 19 -5 18 -17 20 -16 26 3 3 12 10 21 15 21 5 0 2 -20
-7 -45z m-85 13 c28 -28 1 -78 -43 -78 -21 0 -35 17 -35 41 0 14 38 49 53 49
7 0 18 -5 25 -12z m-88 -71 c0 -25 -2 -27 -20 -17 -16 9 -20 8 -20 -5 0 -26
-20 -17 -21 10 -1 14 -2 31 -3 38 -1 7 8 11 22 9 13 -2 22 2 22 10 0 9 3 9 10
-2 5 -8 10 -28 10 -43z m-90 11 c0 -7 3 -24 7 -37 5 -21 3 -23 -15 -19 -14 4
-25 0 -31 -10 -7 -13 -11 -8 -16 21 -8 44 -2 55 20 37 12 -10 15 -10 15 4 0 9
5 16 10 16 6 0 10 -6 10 -12z m-71 -70 c1 -10 -3 -18 -8 -18 -11 0 -21 61 -13
75 6 10 19 -26 21 -57z m-108 18 c-9 -11 -8 -15 5 -20 13 -5 14 -9 4 -21 -9
-10 -9 -15 -1 -15 17 0 13 -17 -6 -24 -9 -4 -20 -1 -25 6 -12 20 -9 76 5 81
23 10 30 7 18 -7z m-59 -56 c4 -49 -3 -51 -24 -5 -14 32 -12 41 13 44 4 1 9
-17 11 -39z m-61 -22 c20 -25 26 -53 8 -43 -5 4 -19 -1 -30 -11 -18 -17 -19
-16 -19 23 0 58 11 66 41 31z m-81 -18 c0 -5 -4 -10 -10 -10 -5 0 -10 -4 -10
-10 0 -5 7 -7 15 -4 18 7 20 -7 3 -24 -9 -9 -8 -12 8 -12 19 -1 19 -1 -1 -16
-18 -13 -21 -13 -32 3 -17 22 -17 70 0 76 20 9 27 8 27 -3z m-55 -62 c7 -20
-18 -68 -35 -68 -25 0 -41 84 -17 93 21 7 46 -4 52 -25z m-77 -48 c6 -16 7
-32 2 -35 -7 -5 -30 45 -30 67 0 18 18 -2 28 -32z m-103 -32 c-6 -17 -4 -20 9
-15 17 7 22 -8 6 -18 -16 -10 -12 -25 5 -19 8 4 15 2 15 -4 0 -9 -30 -26 -35
-20 -1 2 -10 18 -19 36 -14 26 -15 37 -5 48 17 21 31 17 24 -8z m-35 -102 c0
-5 -12 8 -26 29 -19 29 -22 40 -13 46 9 5 17 -4 26 -29 7 -20 13 -41 13 -46z
m-62 4 c26 -24 29 -42 6 -33 -10 4 -17 -1 -21 -16 -8 -33 -23 -14 -23 30 0 44
7 48 38 19z m-48 -77 c0 -7 -4 -13 -8 -13 -10 0 -32 45 -32 63 1 16 39 -34 40
-50z m-53 0 c11 -35 7 -66 -5 -34 -2 7 -12 21 -22 31 -13 13 -15 21 -7 29 17
17 21 14 34 -26z m-27 -73 c0 -22 -26 8 -35 40 l-6 25 20 -25 c11 -14 21 -32
21 -40z m-30 -19 c0 -6 -9 -11 -20 -11 -13 0 -18 -5 -14 -15 11 -26 -11 -16
-29 14 -22 37 -21 41 3 41 12 0 20 7 20 16 0 12 5 10 20 -9 11 -14 20 -30 20
-36z m-79 -23 c19 -24 25 -48 11 -48 -5 0 -16 16 -25 35 -19 40 -14 45 14 13z
m-525 -270 c109 -163 109 -163 115 -128 4 23 7 4 8 -54 1 -80 0 -87 -15 -75
-9 7 -69 92 -133 188 -104 157 -116 172 -120 145 -3 -27 -4 -26 -16 16 -7 25
-15 53 -19 62 -6 12 -2 17 16 20 13 2 30 1 39 -3 8 -4 65 -81 125 -171z m137
176 c12 -4 12 -11 1 -42 -7 -20 -14 -59 -14 -87 l-2 -50 -14 58 c-8 33 -23 72
-34 87 l-20 29 22 4 c37 7 46 7 61 1z m139 -2 c13 -5 15 -11 8 -22 -5 -8 -10
-86 -10 -173 0 -168 8 -205 51 -228 31 -16 15 -23 -25 -9 -20 6 -46 26 -58 43
-21 29 -23 45 -27 192 -2 95 -7 165 -14 173 -20 25 32 41 75 24z m371 -4 c9
-7 50 -83 92 -168 75 -150 77 -154 91 -130 l15 25 -7 -25 c-15 -56 -31 -94
-41 -97 -5 -2 -44 67 -85 154 -76 158 -76 158 -85 123 -9 -34 -10 -33 -15 28
-4 34 -11 69 -18 77 -11 13 -6 16 31 24 3 0 13 -5 22 -11z m354 2 c13 0 13 -2
2 -17 -21 -25 -26 -342 -6 -382 16 -33 9 -41 -38 -41 -46 0 -55 8 -39 38 10
20 14 68 13 182 l0 155 -25 -50 c-13 -27 -22 -41 -18 -30 42 138 54 160 82
150 8 -3 21 -5 29 -5z m117 4 c11 -4 14 -13 10 -30 -4 -14 -3 -49 1 -79 6 -49
9 -55 29 -55 13 0 43 -7 67 -15 24 -9 54 -13 67 -10 21 5 22 3 12 -15 -15 -28
-51 -34 -95 -16 -69 29 -72 26 -80 -69 -4 -47 -5 -99 -1 -115 5 -26 2 -31 -19
-36 -36 -9 -59 2 -49 24 14 28 17 358 3 383 -16 31 14 49 55 33z m236 -37 c0
-28 -1 -29 -18 -14 -9 9 -40 22 -67 29 l-50 13 55 5 c72 7 80 4 80 -33z m119
34 c9 -6 10 -11 2 -15 -7 -5 -11 -42 -11 -97 0 -53 4 -88 9 -84 5 3 30 0 55
-7 56 -15 88 -2 111 43 31 60 2 120 -75 153 l-35 15 38 1 c105 1 168 -92 122
-180 -28 -54 -105 -74 -180 -46 -11 4 1 -4 28 -19 32 -17 63 -47 98 -95 28
-39 60 -76 71 -84 20 -14 20 -14 -2 -21 -43 -14 -68 4 -119 79 -27 40 -65 86
-83 101 l-33 28 -3 -81 c-1 -45 2 -90 7 -101 14 -24 5 -31 -40 -31 -40 0 -58
15 -40 33 16 16 15 369 -1 385 -10 10 -10 15 2 22 19 12 61 12 79 1z m552
-249 c28 -75 58 -145 66 -154 22 -25 8 -38 -40 -38 -50 0 -82 15 -54 26 21 8
21 22 1 85 -16 48 -34 58 -34 18 0 -11 -9 -38 -21 -60 -24 -47 -91 -84 -134
-73 -36 9 -65 50 -65 93 0 30 8 43 61 93 33 32 56 58 50 58 -6 0 -11 8 -11 18
0 11 3 13 8 5 9 -15 38 -11 55 7 10 12 9 12 -5 1 -10 -7 -18 -9 -18 -3 0 5 9
16 21 23 19 13 19 16 6 47 l-14 34 -13 -31 c-7 -18 -14 -30 -16 -28 -4 4 31
110 43 129 9 15 46 -65 114 -250z m392 248 c12 0 17 -8 17 -31 l0 -30 -29 20
c-16 11 -44 22 -62 23 l-34 3 -3 -189 c-2 -127 1 -193 9 -202 16 -19 2 -34
-31 -34 -52 0 -60 7 -44 40 11 22 14 68 12 207 l-3 178 -35 -3 c-19 -1 -45 -9
-57 -17 -30 -20 -33 -19 -33 10 0 23 3 24 73 27 39 2 101 2 137 1 36 -1 73 -2
83 -3z m111 4 c11 -4 13 -14 9 -35 -9 -47 6 -139 22 -133 8 3 39 -2 71 -11 31
-9 63 -14 70 -11 8 3 14 -1 14 -10 0 -30 -50 -37 -108 -15 -66 26 -67 24 -67
-117 0 -98 -1 -103 -22 -108 -36 -10 -56 2 -43 25 13 26 13 356 0 382 -18 33
10 50 54 33z m521 -4 c29 -11 40 -32 31 -57 -6 -14 -10 -13 -34 9 -15 14 -40
33 -57 41 l-30 16 32 1 c17 0 43 -4 58 -10z m-285 -32 c0 -29 -1 -30 -17 -15
-10 8 -40 22 -68 30 l-50 16 68 0 67 1 0 -32z m111 5 c-16 -16 -32 -38 -36
-50 -10 -35 39 -77 125 -109 97 -35 140 -76 140 -132 0 -30 -7 -47 -29 -71
-35 -38 -61 -42 -32 -5 26 33 27 78 3 102 -11 11 -60 36 -111 57 -105 44 -141
77 -141 132 0 27 8 43 34 69 19 19 44 34 55 34 20 0 19 -2 -8 -27z m55 -393
l49 -19 -45 -1 c-28 0 -63 9 -90 23 -45 22 -57 43 -46 74 6 13 14 10 45 -21
20 -20 60 -45 87 -56z m-1580 -6 c-6 -15 -70 -18 -115 -5 -21 5 -17 8 27 19
27 8 58 23 69 34 l18 20 3 -27 c2 -15 1 -33 -2 -41z m1414 31 c0 -44 -13 -50
-88 -40 l-57 8 49 13 c27 7 58 22 70 33 11 12 22 21 23 21 2 0 3 -16 3 -35z"/>
<path d="M1960 2391 c0 -5 7 -15 17 -22 15 -13 15 -12 4 9 -12 23 -21 28 -21
13z"/>
<path d="M2916 3483 c-4 -9 -1 -23 7 -30 12 -12 16 -12 26 1 16 19 8 46 -13
46 -7 0 -17 -8 -20 -17z"/>
<path d="M2312 3224 c4 -21 22 -23 26 -1 2 10 -3 17 -13 17 -10 0 -15 -6 -13
-16z"/>
<path d="M3195 2540 c-46 -36 -85 -89 -85 -116 0 -22 42 -64 64 -64 63 0 114
99 94 179 -6 23 -13 41 -17 40 -3 0 -28 -18 -56 -39z"/>
</g>
</svg>
